M48
;DRILL file {KiCad 4.0.6} date 04/13/17 11:48:48
;FORMAT={-:-/ absolute / inch / decimal}
FMAT,2
INCH,TZ
T1C0.016
T2C0.020
T3C0.022
T4C0.031
T5C0.039
%
G90
G05
M72
T1
X4.725Y-2.725
X4.725Y-2.925
X4.725Y-3.15
X4.725Y-3.375
X4.725Y-3.6
X4.95Y-2.725
X4.95Y-3.85
X4.95Y-3.95
X4.9709Y-4.2075
X5.1Y-2.725
X5.1Y-2.9
X5.1Y-3.15
X5.1Y-3.375
X5.189Y-2.574
X5.2965Y-4.2075
X5.3272Y-2.678
X5.35Y-3.575
X5.35Y-3.7
X5.425Y-2.475
X5.5535Y-2.6331
X5.65Y-2.7
X5.775Y-2.7
X5.825Y-2.8
X5.825Y-3.425
X5.825Y-4.15
X5.85Y-4.
X5.875Y-3.925
X5.875Y-4.15
X5.975Y-4.25
X6.Y-2.7
X6.1Y-3.925
X6.1Y-4.125
X6.25Y-2.7
X6.25Y-2.925
X6.25Y-3.125
X6.25Y-3.6
X6.25Y-3.875
X6.25Y-4.05
X6.475Y-2.95
X6.475Y-2.95
X6.475Y-3.125
X6.475Y-3.4
X6.475Y-3.4
X6.475Y-3.6
X6.475Y-3.7
X6.475Y-3.875
X6.475Y-4.05
X6.475Y-4.25
X6.55Y-2.8
X6.7Y-4.25
X6.725Y-2.7
X6.825Y-2.5
X6.875Y-2.9
X6.925Y-4.25
X7.0028Y-3.0744
X7.0028Y-3.2276
X7.0028Y-3.4307
X7.15Y-4.25
X7.325Y-2.5
X7.325Y-2.9
X7.325Y-2.975
X7.325Y-3.725
X7.325Y-3.875
X7.325Y-4.05
X7.325Y-4.25
T4
X5.675Y-3.1
X5.675Y-3.2
X5.675Y-3.3
X5.675Y-3.4
X5.675Y-3.5
X5.675Y-3.6
X5.675Y-3.7
X5.675Y-3.8
X5.675Y-3.9
X5.675Y-4.
X5.975Y-3.1
X5.975Y-3.2
X5.975Y-3.3
X5.975Y-3.4
X5.975Y-3.5
X5.975Y-3.6
X5.975Y-3.7
X5.975Y-3.8
X5.975Y-3.9
X5.975Y-4.
X6.85Y-3.
X6.85Y-3.1
X6.85Y-3.2
X6.85Y-3.3
X6.85Y-3.4
X6.85Y-3.5
X6.85Y-3.6
X6.85Y-3.7
X7.15Y-3.
X7.15Y-3.1
X7.15Y-3.2
X7.15Y-3.3
X7.15Y-3.4
X7.15Y-3.5
X7.15Y-3.6
X7.15Y-3.7
T5
X4.725Y-3.825
X4.725Y-3.925
X4.95Y-2.575
X5.05Y-2.575
X5.325Y-2.575
X5.425Y-2.575
X5.575Y-4.25
X5.65Y-2.575
X5.675Y-4.25
X5.75Y-2.575
X5.775Y-4.25
X5.85Y-2.575
X5.875Y-4.25
X5.95Y-2.575
X5.975Y-4.25
X6.05Y-2.575
X6.075Y-4.25
X6.15Y-2.575
X6.6Y-3.
X6.6Y-3.1
X6.6Y-3.2
X6.6Y-3.3
X6.6Y-3.4
X6.6Y-3.5
X6.6Y-3.6
X6.6Y-3.7
X6.6Y-3.9
X6.6Y-4.
X6.95Y-2.575
X7.05Y-2.575
X7.475Y-2.75
X7.475Y-2.85
X7.475Y-3.
X7.475Y-3.1
X7.475Y-3.2
X7.475Y-3.3
X7.475Y-3.4
X7.475Y-3.5
X7.475Y-3.6
X7.475Y-3.7
X7.475Y-3.9
X7.475Y-4.
T2
X6.3872Y-2.5091G85X6.3872Y-2.5346
G05
X6.6628Y-2.5091G85X6.6628Y-2.5346
G05
T3
X6.4325Y-2.6281G85X6.4207Y-2.6281
G05
X6.6293Y-2.6281G85X6.6175Y-2.6281
G05
T0
M30
