G04 #@! TF.FileFunction,Soldermask,Bot*
%FSLAX46Y46*%
G04 Gerber Fmt 4.6, Leading zero omitted, Abs format (unit mm)*
G04 Created by KiCad (PCBNEW 4.0.6) date 04/13/17 11:48:46*
%MOMM*%
%LPD*%
G01*
G04 APERTURE LIST*
%ADD10C,0.150000*%
%ADD11C,4.300000*%
%ADD12R,1.700000X1.700000*%
%ADD13O,1.700000X1.700000*%
%ADD14O,1.250000X0.950000*%
%ADD15O,1.000000X1.550000*%
%ADD16R,2.400000X1.600000*%
%ADD17O,2.400000X1.600000*%
%ADD18C,0.600000*%
G04 APERTURE END LIST*
D10*
D11*
X120015000Y-64135000D03*
X189865000Y-64135000D03*
X189865000Y-107315000D03*
D12*
X120015000Y-97155000D03*
D13*
X120015000Y-99695000D03*
D12*
X135255000Y-65405000D03*
D13*
X137795000Y-65405000D03*
D14*
X168235000Y-66755000D03*
X163235000Y-66755000D03*
D15*
X169235000Y-64055000D03*
X162235000Y-64055000D03*
D12*
X143510000Y-65405000D03*
D13*
X146050000Y-65405000D03*
X148590000Y-65405000D03*
X151130000Y-65405000D03*
X153670000Y-65405000D03*
X156210000Y-65405000D03*
D12*
X167640000Y-93980000D03*
D13*
X167640000Y-91440000D03*
X167640000Y-88900000D03*
X167640000Y-86360000D03*
X167640000Y-83820000D03*
X167640000Y-81280000D03*
X167640000Y-78740000D03*
X167640000Y-76200000D03*
D12*
X189865000Y-76200000D03*
D13*
X189865000Y-78740000D03*
X189865000Y-81280000D03*
X189865000Y-83820000D03*
X189865000Y-86360000D03*
X189865000Y-88900000D03*
X189865000Y-91440000D03*
X189865000Y-93980000D03*
D12*
X189865000Y-99060000D03*
D13*
X189865000Y-101600000D03*
D12*
X167640000Y-101600000D03*
D13*
X167640000Y-99060000D03*
D12*
X176530000Y-65405000D03*
D13*
X179070000Y-65405000D03*
D12*
X128270000Y-65405000D03*
D13*
X125730000Y-65405000D03*
D12*
X189865000Y-69850000D03*
D13*
X189865000Y-72390000D03*
D16*
X144145000Y-78740000D03*
D17*
X151765000Y-101600000D03*
X144145000Y-81280000D03*
X151765000Y-99060000D03*
X144145000Y-83820000D03*
X151765000Y-96520000D03*
X144145000Y-86360000D03*
X151765000Y-93980000D03*
X144145000Y-88900000D03*
X151765000Y-91440000D03*
X144145000Y-91440000D03*
X151765000Y-88900000D03*
X144145000Y-93980000D03*
X151765000Y-86360000D03*
X144145000Y-96520000D03*
X151765000Y-83820000D03*
X144145000Y-99060000D03*
X151765000Y-81280000D03*
X144145000Y-101600000D03*
X151765000Y-78740000D03*
D12*
X154305000Y-107950000D03*
D13*
X151765000Y-107950000D03*
X149225000Y-107950000D03*
X146685000Y-107950000D03*
X144145000Y-107950000D03*
X141605000Y-107950000D03*
D16*
X173990000Y-76200000D03*
D17*
X181610000Y-93980000D03*
X173990000Y-78740000D03*
X181610000Y-91440000D03*
X173990000Y-81280000D03*
X181610000Y-88900000D03*
X173990000Y-83820000D03*
X181610000Y-86360000D03*
X173990000Y-86360000D03*
X181610000Y-83820000D03*
X173990000Y-88900000D03*
X181610000Y-81280000D03*
X173990000Y-91440000D03*
X181610000Y-78740000D03*
X173990000Y-93980000D03*
X181610000Y-76200000D03*
D11*
X120015000Y-107315000D03*
D18*
X177870000Y-81980000D03*
X177870000Y-78090000D03*
X177870000Y-87140000D03*
X135310000Y-68020000D03*
X141060000Y-66880000D03*
X131800000Y-65380000D03*
X126260000Y-106870000D03*
X134530000Y-106870000D03*
X158750000Y-102870000D03*
X158750000Y-98425000D03*
X158750000Y-91440000D03*
X158750000Y-68580000D03*
X152400000Y-68580000D03*
X164465000Y-86360000D03*
X164465000Y-86360000D03*
X164465000Y-91440000D03*
X164465000Y-93980000D03*
X164465000Y-98425000D03*
X164465000Y-102870000D03*
X158750000Y-79375000D03*
X186055000Y-63500000D03*
X170815000Y-68580000D03*
X173355000Y-63500000D03*
X158750000Y-74295000D03*
X164465000Y-79375000D03*
X164465000Y-74930000D03*
X164465000Y-74930000D03*
X166370000Y-71120000D03*
X164465000Y-107950000D03*
X170180000Y-107950000D03*
X175895000Y-107950000D03*
X181610000Y-107950000D03*
X186055000Y-107950000D03*
X186055000Y-102870000D03*
X174625000Y-73660000D03*
X186055000Y-73660000D03*
X186055000Y-75565000D03*
X186055000Y-94615000D03*
X186055000Y-98425000D03*
X135890000Y-93980000D03*
X135890000Y-90805000D03*
X129540000Y-85725000D03*
X129540000Y-80010000D03*
X129540000Y-73660000D03*
X129540000Y-69215000D03*
X125730000Y-100330000D03*
X125730000Y-97790000D03*
X125730000Y-69215000D03*
X120015000Y-69215000D03*
X120015000Y-74295000D03*
X120015000Y-80010000D03*
X120015000Y-85725000D03*
X120015000Y-91440000D03*
X137795000Y-62865000D03*
X143510000Y-68580000D03*
X146685000Y-68580000D03*
X147955000Y-71120000D03*
X147955000Y-86995000D03*
X154940000Y-104775000D03*
X154940000Y-99695000D03*
X151765000Y-107950000D03*
X149225000Y-99695000D03*
X149225000Y-105410000D03*
X147955000Y-105410000D03*
X148590000Y-101600000D03*
M02*
